<svg width="100%" height="100%" id="svg" viewBox="0 0 1440 390" xmlns="http://www.w3.org/2000/svg" class="transition duration-300 ease-in-out delay-150"><defs><linearGradient id="gradient" x1="0%" y1="50%" x2="100%" y2="50%"><stop offset="5%" stop-color="#ff9393"></stop><stop offset="95%" stop-color="#7d85b3"></stop></linearGradient></defs><path d="M 0,400 C 0,400 0,200 0,200 C 30.663570564178883,227.04544560454192 61.327141128357766,254.09089120908385 96,263 C 130.67285887164223,271.90910879091615 169.35500605074782,262.6818807682065 197,257 C 224.64499394925218,251.3181192317935 241.25283466865113,249.18158571809016 270,228 C 298.74716533134887,206.81841428190984 339.6336552746478,166.59177635943288 376,180 C 412.3663447253522,193.40822364056712 444.21254423275764,260.4513088441783 482,259 C 519.7874557672424,257.5486911558217 563.5161677943216,187.60298826385412 592,178 C 620.4838322056784,168.39701173614588 633.7227845899561,219.1367381004052 658,227 C 682.2772154100439,234.8632618995948 717.5926938458543,199.85005933452496 758,190 C 798.4073061541457,180.14994066547504 843.9064400266266,195.46302456149482 880,192 C 916.0935599733734,188.53697543850518 942.7815460476396,166.29784241949582 970,179 C 997.2184539523604,191.70215758050418 1024.967375782815,239.34560576052183 1055,258 C 1085.032624217185,276.65439423947817 1117.348950821101,266.3197345384168 1149,255 C 1180.651049178899,243.6802654615832 1211.6368209327807,231.37545608581087 1241,203 C 1270.3631790672193,174.62454391418913 1298.103765447777,130.17844111833975 1331,127 C 1363.896234552223,123.82155888166025 1401.9481172761116,161.91077944083014 1440,200 C 1440,200 1440,400 1440,400 Z" stroke="none" stroke-width="0" fill="url(#gradient)" fill-opacity="1" class="transition-all duration-300 ease-in-out delay-150 path-0" transform="rotate(-180 720 200)"></path></svg>